<svg xmlns="http://www.w3.org/2000/svg" xmlns:xlink="http://www.w3.org/1999/xlink" width="866" zoomAndPan="magnify" viewBox="0 0 649.5 420.749983" height="561" preserveAspectRatio="xMidYMid meet" version="1.0"><defs><filter x="0%" y="0%" width="100%" height="100%" id="6598afeb84"><feColorMatrix values="0 0 0 0 1 0 0 0 0 1 0 0 0 0 1 0 0 0 1 0" color-interpolation-filters="sRGB"/></filter><g/><clipPath id="774a850633"><path d="M 1 0.0351562 L 648 0.0351562 L 648 420.464844 L 1 420.464844 Z M 1 0.0351562 " clip-rule="nonzero"/></clipPath><mask id="0da70bf185"><g filter="url(#6598afeb84)"><rect x="-64.95" width="779.4" fill="#000000" y="-42.074998" height="504.89998" fill-opacity="0.58"/></g></mask><clipPath id="f157533c20"><path d="M 0.71875 3 L 8 3 L 8 16 L 0.71875 16 Z M 0.71875 3 " clip-rule="nonzero"/></clipPath><clipPath id="9020352b37"><rect x="0" width="17" y="0" height="19"/></clipPath></defs><g clip-path="url(#774a850633)"><path fill="#2c7668" d="M 574.355469 24.289062 L 346.121094 24.289062 C 342.789062 24.289062 339.667969 22.621094 337.585938 19.914062 L 310.304688 -19.234375 C 296.558594 -38.808594 274.28125 -50.472656 250.539062 -50.472656 L 74.574219 -50.472656 C 34.382812 -50.472656 1.691406 -17.777344 1.691406 22.414062 L 1.691406 398.914062 C 1.691406 439.105469 34.382812 471.800781 74.574219 471.800781 L 574.355469 471.800781 C 614.546875 471.800781 647.238281 439.105469 647.238281 398.914062 L 647.238281 97.171875 C 647.238281 56.980469 614.546875 24.289062 574.355469 24.289062 Z M 574.355469 24.289062 " fill-opacity="1" fill-rule="nonzero"/></g><g mask="url(#0da70bf185)"><g transform="matrix(1, 0, 0, 1, 571, 43)"><g clip-path="url(#9020352b37)"><g clip-path="url(#f157533c20)"><g fill="#ffffff" fill-opacity="1"><g transform="translate(0.899012, 15.300897)"><g><path d="M 3.9375 -1.3125 L 5.25 -2.625 L 5.25 -9.171875 L 3.9375 -10.484375 L 1.3125 -10.484375 L 1.3125 -1.3125 Z M 0 0 L 0 -11.796875 L 4.375 -11.796875 L 6.5625 -9.609375 L 6.5625 -2.1875 L 4.375 0 Z M 0 0 "/></g></g></g></g><g fill="#ffffff" fill-opacity="1"><g transform="translate(8.074267, 15.300897)"><g><path d="M 0 0 L 0 -11.796875 L 1.3125 -11.796875 L 1.3125 -6.5625 L 2.84375 -6.5625 L 5.46875 -11.796875 L 5.6875 -11.796875 L 6.5625 -11.359375 L 3.828125 -5.90625 L 6.5625 -0.4375 L 5.6875 0 L 5.46875 0 L 2.84375 -5.25 L 1.3125 -5.25 L 1.3125 0 Z M 0 0 "/></g></g></g></g></g></g></svg>
